HIERARCHY
ROOT Hips
{
	OFFSET -3.958830 18.904000 13.208200
	CHANNELS 6 Xposition Yposition Zposition Zrotation Yrotation Xrotation 
	JOINT LHipJoint
	{
		OFFSET 0.000000 0.000000 0.000000
		CHANNELS 3 Zrotation Yrotation Xrotation
		JOINT LeftUpLeg
		{
			OFFSET 1.800000 -1.400000 0.085000
			CHANNELS 3 Zrotation Yrotation Xrotation
			JOINT LeftLeg
			{
				OFFSET 2.215000 -6.000000 0.000000
				CHANNELS 3 Zrotation Yrotation Xrotation
				JOINT LeftFoot
				{
					OFFSET 2.500000 -6.900000 0.000000
					CHANNELS 3 Zrotation Yrotation Xrotation
					JOINT LeftToeBase
					{
						OFFSET 0.200000 -0.500000 1.950000
						CHANNELS 3 Zrotation Yrotation Xrotation
						End Site
						{
							OFFSET 0.000000 0.000000 0.000000
						}
					}
				}
			}
		}
	}
	JOINT RHipJoint
	{
		OFFSET 0.000000 0.000000 0.000000
		CHANNELS 3 Zrotation Yrotation Xrotation
		JOINT RightUpLeg
		{
			OFFSET -1.800000 -1.400000 0.085000
			CHANNELS 3 Zrotation Yrotation Xrotation
			JOINT RightLeg
			{
				OFFSET -2.215000 -6.000000 0.000000
				CHANNELS 3 Zrotation Yrotation Xrotation
				JOINT RightFoot
				{
					OFFSET -2.500000 -6.900000 0.000000
					CHANNELS 3 Zrotation Yrotation Xrotation
					JOINT RightToeBase
					{
						OFFSET -0.200000 -0.500000 1.950000
						CHANNELS 3 Zrotation Yrotation Xrotation
						End Site
						{
							OFFSET 0.000000 0.000000 0.000000
						}
					}
				}
			}
		}
	}
	JOINT LowerBack
	{
		OFFSET 0.000000 0.000000 0.000000
		CHANNELS 3 Zrotation Yrotation Xrotation
		JOINT Spine
		{
			OFFSET -0.087000 1.940000 -0.288900
			CHANNELS 3 Zrotation Yrotation Xrotation
			JOINT Spine1
			{
				OFFSET 0.000000 1.950000 0.060000
				CHANNELS 3 Zrotation Yrotation Xrotation
				JOINT Neck
				{
					OFFSET 0.000000 0.000000 0.000000
					CHANNELS 3 Zrotation Yrotation Xrotation
					JOINT Neck1
					{
						OFFSET 0.000000 1.600000 0.340000
						CHANNELS 3 Zrotation Yrotation Xrotation
						JOINT Head
						{
							OFFSET 0.000000 1.667000 -0.240000
							CHANNELS 3 Zrotation Yrotation Xrotation
							End Site
							{
								OFFSET 0.000000 0.000000 0.000000
							}
						}
					}
				}
				JOINT LeftShoulder
				{
					OFFSET 0.000000 0.000000 0.000000
					CHANNELS 3 Zrotation Yrotation Xrotation
					JOINT LeftArm
					{
						OFFSET 2.700000 1.550000 -0.730000
						CHANNELS 3 Zrotation Yrotation Xrotation
						JOINT LeftForeArm
						{
							OFFSET 5.450000 0.000000 0.000000
							CHANNELS 3 Zrotation Yrotation Xrotation
							JOINT LeftHand
							{
								OFFSET 3.450000 0.000000 0.000000
								CHANNELS 3 Zrotation Yrotation Xrotation
								JOINT LeftHandIndex1
								{
									OFFSET 0.750000 0.000000 0.000000
									CHANNELS 3 Zrotation Yrotation Xrotation
									End Site
									{
										OFFSET 0.000000 0.000000 0.000000
									}
								}
							}
						}
					}
				}
				JOINT RightShoulder
				{
					OFFSET 0.000000 0.000000 0.000000
					CHANNELS 3 Zrotation Yrotation Xrotation
					JOINT RightArm
					{
						OFFSET -2.700000 1.550000 -0.730000
						CHANNELS 3 Zrotation Yrotation Xrotation
						JOINT RightForeArm
						{
							OFFSET -5.450000 0.000000 0.000000
							CHANNELS 3 Zrotation Yrotation Xrotation
							JOINT RightHand
							{
								OFFSET -3.450000 0.000000 0.000000
								CHANNELS 3 Zrotation Yrotation Xrotation
								JOINT RightHandIndex1
								{
									OFFSET -0.750000 0.000000 0.000000
									CHANNELS 3 Zrotation Yrotation Xrotation
									End Site
									{
										OFFSET 0.000000 0.000000 0.000000
									}
								}
							}
						}
					}
				}
			}
		}
	}
}
MOTION
Frames: 14
Frame Time: 0.016667
0.399920 16.077250 -2.403280 -1.008410 0.093576 -4.559833 -15.317939 11.405046 3.868636 -11.532667 -6.685221 -7.838805 -21.095418 19.042145 44.970554 1.592634 11.507382 1.223200 -0.709620 -1.053910 -0.387140 18.529832 -8.231090 4.881640 -11.594011 8.530011 -45.420205 33.468147 -23.372762 42.095074 -1.388711 -10.028804 1.168615 -0.620450 1.062350 0.474970 -3.770736 -2.166109 -9.328055 26.082577 -6.418891 33.235450 6.114505 -2.144256 6.136797 1.141957 10.417412 -14.725310 21.380655 -16.500186 46.411004 -17.089550 5.412480 19.933250 -2.203735 -4.619777 6.818420 -4.152679 9.834087 5.025635 -168.372834 -40.283371 140.102707 -4.399783 3.336038 0.279840 0.775500 -0.190410 0.235370 -0.373672 -1.840077 6.912332 50.363432 -1.089931 -19.419496 113.216760 78.077957 88.821570 2.869002 2.500371 -0.474130 0.381660 0.443610 0.097740 
0.436680 15.980270 -2.395410 -0.996391 -0.874381 -6.919525 -15.183269 11.403698 3.829419 -14.052286 -4.718476 -2.439548 -19.225096 16.984817 41.485843 1.625937 10.539561 1.501661 -0.670220 -0.993020 -0.488650 18.633469 -8.693593 4.621951 -9.236961 8.019751 -41.894800 33.490629 -22.189032 40.224058 -1.304461 -9.636038 1.266178 -0.671820 1.004590 0.517100 -4.122591 -1.497393 -9.079316 28.577585 -7.546259 32.720093 5.004966 -4.122753 11.040190 0.137234 9.439452 -16.421765 20.296258 -15.616093 49.686451 -13.157410 1.565480 24.907250 1.069863 -7.030205 7.409056 -2.959672 8.881550 3.074988 -159.093670 -44.529881 119.301081 -4.155187 3.629319 0.155430 0.719650 -0.206210 0.258660 -1.586153 0.390007 9.842522 48.725685 -1.792197 -11.891306 -174.590342 64.497726 167.982966 2.045011 -1.831021 -0.289520 0.195330 0.412220 0.196400 
0.416830 15.889240 -2.384350 0.767904 -2.322322 -8.075333 -15.202677 11.448093 3.936939 -17.006440 -3.243251 0.905406 -17.265783 15.287631 38.876116 1.548817 9.834159 1.717406 -0.544320 -0.866300 -0.410590 18.613649 -8.788998 4.459698 -8.558077 7.496411 -40.090835 32.477622 -21.754077 40.874466 -1.330650 -9.619677 1.263014 -0.622120 0.947540 0.532270 -4.079186 -1.530511 -9.020473 26.312157 -7.262837 33.291709 4.830263 -5.050691 13.134502 0.966632 8.774124 -15.893814 19.004694 -13.782748 51.571537 -12.244520 0.896110 23.887120 1.649220 -5.519105 5.548751 -2.221140 6.581335 1.440271 -146.178157 -48.170691 99.418637 -3.994741 3.754990 0.137380 0.670490 -0.172430 0.301470 -3.254487 -0.456164 11.003739 46.617900 -1.738473 -5.442467 -172.009812 50.309974 171.240596 2.169051 -2.007094 -0.221350 0.152330 0.322100 0.216110 
0.407830 15.886560 -2.347170 1.615509 -4.048309 -6.799226 -15.216344 11.483034 3.926522 -18.211378 -2.456922 1.309815 -15.787603 13.705682 36.178462 1.422026 9.055092 1.920796 -0.460240 -0.731370 -0.414350 18.609373 -8.681335 4.534528 -9.990438 6.896968 -40.666892 34.310545 -22.328734 40.281745 -1.442385 -9.725873 1.223602 -0.592040 0.902570 0.557470 -4.064683 -1.758679 -9.027377 25.188757 -7.326086 31.095882 4.917396 -5.844853 14.916298 1.647605 7.290869 -16.200185 15.119891 -11.365551 55.748998 -11.944840 -0.002500 22.250680 0.586937 -5.156186 6.246406 -9.243541 8.676369 -0.793575 -136.864092 -52.126596 88.983865 -3.942315 3.737078 0.160780 0.603610 -0.080650 0.355880 -3.326774 -0.188070 11.400702 42.385657 -3.965173 -2.303797 -171.874125 41.636403 173.738900 2.245321 -2.021577 -0.143540 0.159020 0.280200 0.272210 
0.393010 15.955970 -2.350690 1.605046 -6.693673 -6.776385 -15.161713 11.459700 3.866860 -18.601548 -1.825017 1.472130 -13.992685 12.246990 33.876005 1.333262 8.242449 2.107308 -0.325670 -0.565510 -0.349260 18.660968 -8.687977 4.660902 -11.683273 6.589938 -41.259431 35.402222 -23.137079 41.040195 -1.590147 -9.965822 1.119811 -0.565820 0.758710 0.568690 -4.227086 -1.669401 -9.015072 25.576412 -8.550413 31.860473 2.321825 -6.846079 16.007839 2.038460 5.504491 -16.395193 10.985567 -8.365935 59.356766 -10.487930 -0.602230 20.922700 -1.553176 -5.341256 7.541974 -16.696029 14.494818 -5.006945 -133.173930 -57.798092 88.638968 -3.829852 3.725719 0.192340 0.474570 0.030880 0.381350 -1.872907 0.761901 11.136355 41.599426 -5.162184 -2.269471 -174.925875 39.504066 165.840332 2.319842 -2.070799 -0.024920 0.082920 0.189910 0.300320 
0.358310 16.044540 -2.355240 1.751979 -10.210665 -7.099335 -15.190352 11.558946 3.845852 -18.518187 -1.982184 0.485579 -12.243534 11.650322 34.689377 1.243532 8.002238 2.112982 -0.255270 -0.494950 -0.308370 18.616664 -8.588671 4.814091 -13.502985 6.714116 -41.447469 36.898836 -23.548604 40.956232 -1.671517 -10.083995 1.049777 -0.539890 0.632290 0.551430 -4.133249 -1.921924 -9.105003 23.819526 -8.935076 35.042390 0.350311 -6.427794 14.075678 2.529684 4.102326 -16.060980 7.726362 -6.314544 60.872130 -10.053920 -0.872980 19.421950 -2.942491 -3.624641 7.696348 -25.074744 17.619056 -8.771625 -125.604078 -62.045617 83.137340 -3.713229 3.690102 0.282250 0.370410 0.098590 0.364890 -1.600030 0.414553 10.629383 44.611676 -6.841862 -6.679797 178.029530 45.878052 148.178845 2.275506 -2.077278 -0.002600 0.032120 0.155350 0.269500 
0.284640 16.151910 -2.354000 1.602174 -13.012354 -5.630712 -15.277433 11.706672 3.764974 -16.177980 -2.910030 -2.079490 -15.800461 13.040352 34.374963 1.252930 8.245865 1.954736 -0.134070 -0.418750 -0.178280 18.525428 -8.310676 5.018459 -14.655088 7.153609 -42.553633 39.934903 -24.055297 39.451523 -1.767744 -10.116199 0.957660 -0.506960 0.481780 0.619670 -3.887506 -2.480149 -9.269825 21.067767 -8.389023 35.662745 -0.499519 -5.466339 9.818268 3.650723 3.393087 -14.621315 5.720849 -4.923166 62.711544 -10.980160 0.685800 17.717730 -5.466199 0.036496 6.687417 -30.527171 18.857600 -9.801769 -109.152537 -65.437372 70.029570 -3.660076 3.770951 0.357570 0.291380 0.176830 0.327490 -1.334807 -2.219662 8.882405 44.835447 -8.773655 -11.994550 152.479587 57.445379 110.992048 2.256564 -1.951470 0.059330 -0.093710 0.111090 0.209700 
0.200780 16.270790 -2.341150 0.072452 -13.554701 -2.776759 -15.268780 11.739537 3.652866 -12.707230 -4.722542 -6.385910 -17.287370 13.918739 36.237190 1.392429 8.454854 1.873984 -0.071580 -0.322940 -0.108230 18.519412 -8.139393 5.268795 -16.345306 6.507264 -44.451607 43.843854 -25.234412 37.427084 -1.850300 -10.239000 0.943731 -0.493800 0.387990 0.619550 -3.878209 -2.702727 -9.428304 21.578882 -8.992325 34.572092 -3.341650 -4.671809 2.264765 5.166053 3.360991 -12.303488 5.081826 -4.864450 61.972626 -13.967740 4.228020 19.253150 -8.320888 5.964768 3.825663 -30.660519 17.636767 -7.900816 -83.109551 -63.634679 49.048847 -3.512082 4.003603 0.307690 0.270430 0.237540 0.381130 -1.848808 -7.804542 8.028721 49.282742 -11.999060 -13.183439 109.193081 65.697052 65.130441 2.683818 -1.652479 0.117830 -0.187170 -0.026780 0.232470 
0.098490 16.339040 -2.294530 -0.303504 -13.735694 2.456954 -15.292592 11.432787 3.684863 -11.235680 -7.615859 -14.093861 -14.489563 13.792123 42.034873 1.469096 8.935088 1.797057 -0.234250 -0.499710 -0.228030 18.562881 -7.774484 5.692514 -19.957321 5.197896 -49.501031 46.456673 -27.431286 37.413718 -1.871921 -10.719250 0.894985 -0.574700 0.573410 0.598860 -3.916962 -2.763817 -9.713926 20.066297 -7.456250 29.140766 -3.182008 -3.156826 -4.485775 5.275689 3.944298 -9.670156 5.505974 -4.871754 58.633203 -14.261850 6.593590 23.639630 -9.335486 12.182231 1.152018 -32.355004 16.356390 -7.127731 -60.294846 -55.864072 30.490079 -3.624150 3.881344 0.221820 0.409310 0.129580 0.429820 -1.094598 -14.570531 6.046828 52.060573 -15.535179 -13.874014 57.488014 61.653877 27.777112 2.277128 -2.223065 0.029650 -0.134510 0.001560 0.271090 
0.026060 16.436800 -2.245360 0.108939 -13.452332 5.561859 -15.317969 11.102291 3.920728 -9.805332 -10.308293 -20.416182 -11.537577 13.949272 48.870106 1.703732 9.737855 1.579125 -0.330220 -0.572190 -0.359360 18.600919 -7.571807 5.818535 -23.402811 3.278260 -51.258988 45.225086 -28.697358 38.537133 -1.856803 -10.988198 0.863492 -0.646230 0.673060 0.598870 -3.952529 -2.744761 -9.941483 18.265584 -6.483909 25.695891 -3.278641 -2.438839 -9.151127 4.629134 3.618046 -8.467900 4.043277 -3.678940 54.139275 -12.471710 6.698170 25.415040 -8.967090 15.178837 0.406343 -35.816758 18.544847 -9.933547 -42.062955 -47.216199 16.583786 -3.659899 3.726485 0.164590 0.454400 0.095290 0.482650 -0.351269 -17.401047 4.713187 57.120906 -19.433830 -19.825242 23.422210 50.575323 8.404674 2.286883 -1.835622 0.030460 -0.130480 0.015640 0.341120 
-0.052930 16.530310 -2.202990 -0.689657 -14.029499 7.505159 -15.385973 11.116906 4.063893 -5.519612 -11.693942 -25.644600 -9.366814 14.450565 54.094011 1.820290 10.571511 1.298281 -0.355320 -0.609380 -0.413170 18.556238 -7.391882 5.755487 -25.172329 2.383049 -51.116756 42.142557 -29.510334 40.757035 -1.873632 -11.200180 0.783952 -0.692880 0.701380 0.650880 -3.806093 -3.247552 -9.996694 17.239046 -6.100645 23.988586 -2.858769 -1.879070 -12.346991 4.467174 1.601768 -7.276576 -0.573687 -0.825586 48.572818 -11.872630 7.449240 22.053900 -8.134209 18.007497 -0.460192 -41.138807 20.717135 -13.756990 -24.288815 -39.861034 6.959208 -3.747854 3.518273 0.191450 0.449790 0.095680 0.473950 -0.833359 -18.787514 3.526510 61.487121 -21.553662 -22.931706 -1.157494 38.122586 -0.076893 2.385688 -1.402191 0.054270 -0.153540 0.070640 0.349160 
-0.131250 16.599260 -2.175330 -1.526691 -16.169726 9.862478 -15.415888 10.988336 4.040023 -1.180832 -11.592189 -31.129593 -5.603625 13.919848 57.444046 1.695379 11.104683 1.193270 -0.548980 -0.864760 -0.607490 18.602987 -7.275923 5.710712 -26.653838 2.602587 -52.469086 36.105400 -29.428370 45.423977 -1.724172 -11.646729 0.636427 -0.729040 0.972580 0.626560 -3.901858 -3.250658 -9.780582 16.336081 -5.018476 20.948656 -2.348518 -1.410071 -13.401156 3.286795 -1.456617 -4.397644 -5.326294 2.365118 38.135354 -9.236180 7.198370 21.186990 -8.182050 22.028732 -2.134644 -43.324863 21.951633 -15.316264 -13.036542 -28.296982 1.608943 -4.077289 3.222524 0.134030 0.603810 -0.150740 0.437990 1.383128 -21.056827 1.204372 60.698185 -23.941852 -22.530945 -13.150418 27.977431 -2.021970 2.485940 -1.283208 -0.115150 -0.080330 0.240030 0.342440 
-0.209890 16.647000 -2.133950 -2.541388 -16.102428 11.371310 -15.436823 11.085489 4.018571 2.766403 -11.067876 -35.195078 -0.032813 11.412078 59.424194 1.392548 11.121693 1.210455 -0.674500 -1.040320 -0.733540 18.615311 -7.501287 5.254562 -26.333041 2.293953 -50.937596 26.878092 -27.239902 49.905042 -1.463217 -11.660590 0.574737 -0.703300 1.213420 0.614500 -3.911037 -3.248470 -9.314285 15.662574 -4.876622 17.946469 -1.800273 -1.784637 -14.632605 2.167188 -3.751373 -1.531184 -7.857694 4.452163 28.434788 -7.950850 7.234550 18.374700 -7.910099 25.832519 -3.387296 -44.585617 23.887580 -15.946459 -3.912666 -20.205664 -0.792632 -4.423500 2.981670 0.091900 0.749190 -0.360620 0.411010 3.171741 -23.719838 -0.788088 59.041980 -27.636200 -22.130096 -19.946299 22.390886 -2.206796 2.523025 -1.331858 -0.282690 0.019880 0.387620 0.322850 
-0.273750 16.670770 -2.090100 -3.188000 -17.366236 11.458652 -15.349388 11.501872 3.813723 5.179439 -9.217236 -36.106277 5.042675 8.107928 56.061233 1.024131 10.067199 1.525079 -0.686870 -0.993000 -0.869250 18.627721 -8.267455 4.607018 -25.118092 2.460947 -47.684650 16.073667 -21.610989 51.810723 -1.039494 -10.673349 0.851990 -0.614310 1.378850 0.568540 -4.011234 -2.763789 -8.740314 14.571201 -4.234055 15.617569 -1.850309 -1.792250 -15.421082 0.769944 -4.864393 0.072414 -8.784914 6.371303 23.329816 -3.897850 5.391850 16.263240 -6.420074 28.315049 -3.426062 -46.064026 27.192946 -16.719984 2.531216 -15.068877 -1.558434 -4.619164 2.833809 0.017820 0.816260 -0.469040 0.463380 4.196673 -25.169593 -2.012161 58.046570 -30.961889 -22.637943 -23.067599 21.471083 -2.557318 2.506092 -1.384669 -0.341170 0.139310 0.434970 0.387470 
